<svg width="119" height="155" viewBox="0 0 119 155" fill="none" xmlns="http://www.w3.org/2000/svg">
<path d="M33.75 92.1316C38.6281 92.1316 43.3064 90.2047 46.7557 86.7747C50.205 83.3448 52.1429 78.6928 52.1429 73.8421C52.1429 63.7463 48.4643 59.2105 44.7857 51.8947C36.8989 36.217 43.1377 22.2365 59.5 8C63.1786 26.2895 74.2143 43.8474 88.9286 55.5526C103.643 67.2579 111 81.1579 111 95.7895C111 102.515 109.668 109.174 107.08 115.387C104.492 121.6 100.698 127.245 95.916 132.001C91.1338 136.756 85.4565 140.528 79.2082 143.102C72.9599 145.675 66.2631 147 59.5 147C52.7369 147 46.0401 145.675 39.7918 143.102C33.5435 140.528 27.8662 136.756 23.084 132.001C18.3018 127.245 14.5083 121.6 11.9202 115.387C9.33209 109.174 8 102.515 8 95.7895C8 87.3544 11.1856 79.0071 15.3571 73.8421C15.3571 78.6928 17.295 83.3448 20.7443 86.7747C24.1936 90.2047 28.8719 92.1316 33.75 92.1316Z" stroke="#FBBF24" stroke-width="15" stroke-linecap="round" stroke-linejoin="round"/>
</svg>
