<svg width="668" height="199" viewBox="0 0 668 199" fill="none" xmlns="http://www.w3.org/2000/svg">
<path d="M38.75 114.132C43.6281 114.132 48.3064 112.205 51.7557 108.775C55.205 105.345 57.1429 100.693 57.1429 95.8421C57.1429 85.7463 53.4643 81.2105 49.7857 73.8947C41.8989 58.217 48.1377 44.2365 64.5 30C68.1786 48.2895 79.2143 65.8474 93.9286 77.5526C108.643 89.2579 116 103.158 116 117.789C116 124.515 114.668 131.174 112.08 137.387C109.492 143.6 105.698 149.245 100.916 154.001C96.1338 158.756 90.4565 162.528 84.2082 165.102C77.9599 167.675 71.2631 169 64.5 169C57.7369 169 51.0401 167.675 44.7918 165.102C38.5435 162.528 32.8662 158.756 28.084 154.001C23.3018 149.245 19.5083 143.6 16.9202 137.387C14.3321 131.174 13 124.515 13 117.789C13 109.354 16.1856 101.007 20.3571 95.8421C20.3571 100.693 22.295 105.345 25.7443 108.775C29.1936 112.205 33.8719 114.132 38.75 114.132Z" stroke="#FBBF24" stroke-width="15" stroke-linecap="round" stroke-linejoin="round"/>
<path d="M169.926 151.5V46.7727H241.415V67.3295H195.239V88.8068H236.864V109.415H195.239V151.5H169.926ZM353.007 99.1364C353.007 110.659 350.791 120.426 346.359 128.438C341.928 136.449 335.928 142.534 328.359 146.693C320.825 150.852 312.371 152.932 302.996 152.932C293.587 152.932 285.115 150.835 277.581 146.642C270.047 142.449 264.064 136.364 259.632 128.386C255.234 120.375 253.036 110.625 253.036 99.1364C253.036 87.6136 255.234 77.8466 259.632 69.8352C264.064 61.8239 270.047 55.7386 277.581 51.5795C285.115 47.4205 293.587 45.3409 302.996 45.3409C312.371 45.3409 320.825 47.4205 328.359 51.5795C335.928 55.7386 341.928 61.8239 346.359 69.8352C350.791 77.8466 353.007 87.6136 353.007 99.1364ZM327.132 99.1364C327.132 92.3182 326.161 86.5568 324.217 81.8523C322.308 77.1477 319.547 73.5852 315.933 71.1648C312.354 68.7443 308.041 67.5341 302.996 67.5341C297.984 67.5341 293.672 68.7443 290.058 71.1648C286.445 73.5852 283.666 77.1477 281.723 81.8523C279.814 86.5568 278.859 92.3182 278.859 99.1364C278.859 105.955 279.814 111.716 281.723 116.42C283.666 121.125 286.445 124.687 290.058 127.108C293.672 129.528 297.984 130.739 302.996 130.739C308.041 130.739 312.354 129.528 315.933 127.108C319.547 124.687 322.308 121.125 324.217 116.42C326.161 111.716 327.132 105.955 327.132 99.1364ZM367.786 151.5V46.7727H411.047C418.888 46.7727 425.655 48.1875 431.348 51.017C437.075 53.8125 441.49 57.8352 444.592 63.0852C447.695 68.3011 449.246 74.4886 449.246 81.6477C449.246 88.9091 447.661 95.0795 444.49 100.159C441.32 105.205 436.82 109.057 430.99 111.716C425.161 114.341 418.257 115.653 410.28 115.653H382.922V95.7102H405.575C409.393 95.7102 412.581 95.2159 415.138 94.2273C417.729 93.2045 419.689 91.6705 421.018 89.625C422.348 87.5455 423.013 84.8864 423.013 81.6477C423.013 78.4091 422.348 75.733 421.018 73.6193C419.689 71.4716 417.729 69.8693 415.138 68.8125C412.547 67.7216 409.359 67.1761 405.575 67.1761H393.098V151.5H367.786ZM426.746 103.636L452.825 151.5H425.212L399.643 103.636H426.746ZM531.857 80.983C531.277 78.8352 530.425 76.9432 529.3 75.3068C528.175 73.6364 526.794 72.2216 525.158 71.0625C523.521 69.9034 521.646 69.0341 519.533 68.4545C517.419 67.8409 515.101 67.5341 512.578 67.5341C507.499 67.5341 503.101 68.7614 499.385 71.2159C495.703 73.6705 492.857 77.25 490.845 81.9545C488.834 86.625 487.828 92.3011 487.828 98.983C487.828 105.699 488.8 111.426 490.743 116.165C492.686 120.903 495.499 124.517 499.18 127.006C502.862 129.494 507.328 130.739 512.578 130.739C517.214 130.739 521.135 129.989 524.339 128.489C527.578 126.955 530.033 124.79 531.703 121.994C533.374 119.199 534.209 115.909 534.209 112.125L538.913 112.688H513.447V94.2273H558.601V108.085C558.601 117.46 556.607 125.489 552.618 132.17C548.663 138.852 543.209 143.983 536.254 147.562C529.334 151.142 521.374 152.932 512.374 152.932C502.385 152.932 493.607 150.767 486.038 146.438C478.47 142.108 472.572 135.937 468.345 127.926C464.118 119.881 462.004 110.335 462.004 99.2898C462.004 90.6989 463.283 83.0795 465.839 76.4318C468.396 69.75 471.959 64.0909 476.527 59.4545C481.129 54.8182 486.447 51.3068 492.482 48.9204C498.55 46.5341 505.078 45.3409 512.067 45.3409C518.135 45.3409 523.777 46.2102 528.993 47.9489C534.243 49.6875 538.879 52.142 542.902 55.3125C546.959 58.483 550.249 62.25 552.771 66.6136C555.294 70.9773 556.862 75.767 557.476 80.983H531.857ZM573.52 151.5V46.7727H646.543V67.3295H598.832V88.8068H642.81V109.415H598.832V130.943H646.543V151.5H573.52Z" fill="white"/>
</svg>
